<?xml version="1.0" encoding="UTF-8"?>
<svg version="1.1" xmlns="http://www.w3.org/2000/svg" width="1016" height="962">
<path d="M0 0 C335.28 0 670.56 0 1016 0 C1016 317.46 1016 634.92 1016 962 C680.72 962 345.44 962 0 962 C0 644.54 0 327.08 0 0 Z " fill="#0D172D" transform="translate(0,0)"/>
<path d="M0 0 C0.71847343 -0.00265183 1.43694686 -0.00530365 2.17719221 -0.00803584 C4.57918077 -0.01568139 6.9811178 -0.01628617 9.38311768 -0.01688576 C11.12483696 -0.02090344 12.86655531 -0.02534218 14.60827255 -0.03016531 C19.3904063 -0.04210131 24.17252997 -0.04777228 28.95467567 -0.05234647 C34.11356896 -0.05831339 39.27245026 -0.06992003 44.43133545 -0.08063698 C56.88387184 -0.10512874 69.33641218 -0.11977963 81.78896523 -0.13269705 C85.30539094 -0.13641013 88.82181626 -0.14038322 92.33824158 -0.14444971 C114.17409879 -0.16967791 136.00995664 -0.19173109 157.8458252 -0.20417786 C162.90024823 -0.20710752 167.95467125 -0.2100692 173.00909424 -0.21308327 C174.89346136 -0.21420234 174.89346136 -0.21420234 176.81589651 -0.21534403 C197.18678998 -0.22801001 217.55759641 -0.26125269 237.92844915 -0.3028851 C258.83958462 -0.34527198 279.75067546 -0.36886877 300.66185379 -0.37409842 C312.40424702 -0.37751527 324.14650399 -0.38930358 335.88885498 -0.42220116 C345.88375358 -0.45015756 355.87848795 -0.46122014 365.87342262 -0.4500057 C370.97409089 -0.44480862 376.07441499 -0.44777419 381.17503357 -0.47247124 C385.8433151 -0.49488687 390.51100368 -0.49428393 395.17929506 -0.47526737 C396.86897849 -0.47245663 398.55870148 -0.47812526 400.24832106 -0.4930803 C414.45306872 -0.61113285 414.45306872 -0.61113285 419.02880859 2.557827 C422.36096212 5.94288278 423.36640722 7.44271693 423.92315674 12.12920189 C423.8599565 17.51441794 420.99297437 21.7911858 418.44268799 26.38701439 C417.33497965 28.44249902 416.22824897 30.49851075 415.12237549 32.55498314 C414.53939697 33.6292556 413.95641846 34.70352806 413.35577393 35.81035423 C410.35081364 41.40095893 407.46902587 47.05466884 404.56768799 52.69951439 C399.96743105 61.6046104 395.25544496 70.43428484 390.39678955 79.20073509 C387.1787666 85.05442675 384.10897129 90.97154903 381.09893799 96.93388939 C380.70567322 97.71006615 380.31240845 98.4862429 379.90722656 99.28594017 C377.94420402 103.16105991 375.99270776 107.04118521 374.06085205 110.93193626 C369.97104304 119.07578831 365.71572203 126.31748209 359.56768799 133.13701439 C358.98124512 133.79749779 358.39480225 134.45798119 357.79058838 135.13847923 C349.44287006 144.3051739 336.77908711 151.09546098 324.56768799 153.13701439 C322.68269718 153.22397808 320.79503376 153.26079389 318.90803814 153.26006222 C317.77294613 153.26205327 316.63785411 153.26404431 315.46836537 153.2660957 C314.22615328 153.26318286 312.98394119 153.26027002 311.7040863 153.25726891 C310.3674603 153.25770505 309.03083438 153.25858075 307.69420892 153.25985807 C304.02278639 153.26209455 300.35139302 153.25809331 296.6799742 153.25308001 C292.72024323 153.24876356 288.76051391 153.25022279 284.80078125 153.25098228 C277.94076841 153.25150676 271.08076507 153.24836792 264.22075462 153.24274445 C254.30231804 153.23461913 244.38388606 153.23201316 234.46544651 153.23075645 C218.37362921 153.22856756 202.28181699 153.22191187 186.19000244 153.21245384 C170.55784124 153.20327553 154.92568142 153.19619674 139.29351807 153.19194603 C138.33003211 153.19168331 137.36654616 153.19142058 136.37386366 153.1911499 C131.54036183 153.18984487 126.70685998 153.18858116 121.87335813 153.18733799 C81.77146358 153.17697044 41.66957841 153.15853485 1.56768799 153.13701439 C1.56768799 186.46701439 1.56768799 219.79701439 1.56768799 254.13701439 C10.43192627 254.10035667 19.29616455 254.06369896 28.42901611 254.0259304 C56.79287314 253.91357505 85.15673105 253.83571489 113.52075282 253.77955708 C117.92669792 253.77080216 122.33264234 253.7617419 126.73858643 253.7524929 C128.05429981 253.74973865 128.05429981 253.74973865 129.39659327 253.74692874 C143.59825273 253.71647147 157.7997138 253.6612806 172.00125557 253.59694482 C186.57392174 253.53147848 201.14648402 253.49260175 215.71929121 253.47839493 C224.71124389 253.46879112 233.70263581 253.43846209 242.69441587 253.38159912 C248.86087138 253.34459018 255.02703709 253.3334152 261.19359559 253.34250475 C264.75133941 253.34698749 268.30810358 253.34012944 271.86567307 253.30257607 C275.72556822 253.26212958 279.58419107 253.27611147 283.4442749 253.29523277 C284.56491097 253.27484288 285.68554704 253.25445299 286.84014177 253.23344523 C293.68451217 253.32516449 297.25902765 254.57339083 302.14624548 259.44004577 C304.7050914 262.49488702 304.9055736 265.00525695 304.84063721 268.96904564 C304.37706898 272.65105443 302.5374844 275.53947837 300.63018799 278.63701439 C299.70700599 280.21546254 298.7880845 281.79640671 297.87237549 283.37920189 C297.35256104 284.273489 296.83274658 285.16777611 296.29718018 286.08916283 C293.19633226 291.5537288 290.28595689 297.11998595 287.35513306 302.67705345 C285.51295444 306.16892824 283.66347999 309.65693101 281.81378174 313.14482689 C281.45095596 313.82917809 281.08813019 314.51352928 280.71430969 315.21861839 C276.93488236 322.34085782 273.10925886 329.43781939 269.24688721 336.51543236 C266.52899182 341.49724687 263.85000677 346.49466869 261.22784424 351.52763939 C250.1454612 372.6805217 238.28253795 388.01260856 215.02149963 396.24925804 C205.84303343 399.00204634 196.68814568 398.66567276 187.18170166 398.59111595 C185.15025352 398.58998572 183.11880376 398.59062476 181.08735657 398.59288597 C175.60881667 398.59402717 170.13063165 398.57061444 164.65217376 398.54259014 C158.91336252 398.51747698 153.17454192 398.5152267 147.4356842 398.51048851 C136.58458685 398.49808778 125.73365192 398.46530557 114.88262588 398.42509055 C102.52224396 398.3802823 90.16185403 398.35836306 77.80141103 398.33830881 C52.39008019 398.29657029 26.97889322 398.22627491 1.56768799 398.13701439 C1.57460144 399.33161231 1.57460144 399.33161231 1.58165455 400.55034351 C1.69270293 420.04509605 1.77511851 439.5397844 1.82674885 459.03478718 C1.85238885 468.462941 1.88726288 477.89088204 1.94488525 487.31889915 C1.99516034 495.54878847 2.02708179 503.7785235 2.03813046 512.00856215 C2.0445757 516.35510654 2.05941576 520.70121005 2.09633827 525.04761124 C2.30274099 550.3485642 1.88368201 576.7092492 -9.99481201 599.76201439 C-10.3392334 600.43587181 -10.68365479 601.10972923 -11.03851318 601.80400658 C-17.74203159 614.67691039 -25.22596902 625.81550815 -35.43231201 636.13701439 C-36.72588623 637.53886986 -36.72588623 637.53886986 -38.04559326 638.96904564 C-58.30428334 660.42825068 -87.61429798 672.20141844 -116.92974854 673.22414207 C-119.59914813 673.25163184 -122.26672298 673.24971224 -124.93621826 673.23467064 C-125.90010971 673.23325569 -126.86400116 673.23184074 -127.85710144 673.23038292 C-130.90303799 673.22483381 -133.94889808 673.21229108 -136.99481201 673.19951439 C-139.07358698 673.1944928 -141.15236312 673.18993105 -143.23114014 673.18584251 C-148.2982264 673.1748811 -153.36525629 673.15765219 -158.43231201 673.13701439 C-158.4836971 623.73466244 -158.53145503 574.33230865 -158.55934143 524.92993736 C-158.5597556 524.19808719 -158.56016977 523.46623701 -158.56059649 522.71220956 C-158.56957644 506.80490431 -158.57788681 490.89759878 -158.585508 474.99029283 C-158.58924982 467.1886954 -158.59313951 459.38709804 -158.59710693 451.58550072 C-158.59749921 450.8091721 -158.59789149 450.03284348 -158.59829565 449.23298974 C-158.61106639 424.09634198 -158.63359036 398.95971453 -158.66120367 373.82307906 C-158.689542 347.97935102 -158.70797774 322.13563421 -158.71405698 296.2918909 C-158.71492137 292.63676309 -158.71589828 288.98163533 -158.71694374 285.32650757 C-158.71714601 284.60716721 -158.71734828 283.88782684 -158.71755668 283.14668829 C-158.72109379 271.59445817 -158.7349862 260.0422629 -158.75280811 248.49004697 C-158.77052748 236.85971477 -158.77695973 225.22942542 -158.77281614 213.59907933 C-158.7708989 207.30418225 -158.77379221 201.00938694 -158.78992844 194.71450806 C-158.80462004 188.94075735 -158.8052047 183.16717603 -158.7950087 177.39341722 C-158.79375014 175.31502759 -158.7974767 173.23662701 -158.80696156 171.15825864 C-158.88383302 153.25931743 -157.18563438 136.41761145 -151.24481201 119.44951439 C-150.85043945 118.29813988 -150.45606689 117.14676537 -150.04974365 115.96050072 C-147.10838853 107.58296995 -143.74971277 99.6213874 -139.40740967 91.87822533 C-138.41442422 90.10507255 -137.45917886 88.31492331 -136.50653076 86.51982689 C-129.79437652 74.09034951 -121.13287577 63.36642508 -111.43231201 53.13701439 C-110.95374756 52.62058372 -110.47518311 52.10415306 -109.9821167 51.57207298 C-82.54526337 22.09680766 -40.99976781 0.07491734 0 0 Z " fill="#03B1EF" transform="translate(423.43231201171875,163.8629856109619)"/>
<path d="M0 0 C0.70706362 -0.00115384 1.41412723 -0.00230769 2.14261702 -0.0034965 C4.50573415 -0.0061379 6.86878279 -0.00166149 9.2318964 0.00279331 C10.9456053 0.0023571 12.65931414 0.00148128 14.37302262 0.00020415 C19.07746726 -0.00203106 23.78188912 0.00196718 28.48633087 0.00698221 C33.5612382 0.01130047 38.63614424 0.0098393 43.71105289 0.00907993 C52.5021371 0.00855557 61.29321389 0.01169321 70.08429623 0.01731777 C82.79472787 0.02544465 95.50515593 0.02804921 108.21558989 0.02930576 C128.83740621 0.03149441 149.45921858 0.03814944 170.08103275 0.04760838 C190.11325911 0.05678732 210.1454844 0.0638658 230.17771244 0.06811619 C232.0298781 0.06851027 232.0298781 0.06851027 233.91946124 0.06891232 C240.11397229 0.07021736 246.30848335 0.07148106 252.50299442 0.07272422 C303.8930236 0.08309101 355.28304849 0.10070425 406.67307377 0.12304783 C406.67307377 0.78304783 406.67307377 1.44304783 406.67307377 2.12304783 C395.9870631 2.97625824 385.39490983 3.26645309 374.67939091 3.25003147 C373.01596325 3.25118644 371.35253585 3.25277647 369.68910897 3.25475872 C365.16061416 3.25890001 360.63214065 3.25688512 356.1036458 3.2537725 C351.20397109 3.25149744 346.30429989 3.25500832 341.40462589 3.25775242 C331.82573604 3.26218565 322.24685406 3.26124484 312.66796391 3.25833978 C304.88518295 3.25607744 297.10240419 3.25577682 289.31962299 3.25686359 C287.65545715 3.25709344 287.65545715 3.25709344 285.9576718 3.25732794 C283.70368647 3.25764767 281.44970113 3.25797188 279.1957158 3.25830053 C258.09250402 3.2611478 236.98929659 3.25787941 215.88608553 3.25250016 C197.77471485 3.24802662 179.66335058 3.24881404 161.55198002 3.25341892 C140.50654435 3.25876731 119.46111249 3.26087969 98.41567624 3.25780666 C96.17323979 3.25748811 93.93080334 3.25717374 91.68836689 3.25686359 C90.58508705 3.25670932 89.48180721 3.25655504 88.34509464 3.25639609 C80.56566556 3.2555322 72.78623889 3.25699095 65.00681019 3.25934315 C55.53580252 3.26214399 46.06480314 3.26139658 36.59379642 3.2560624 C31.76078216 3.25343022 26.92778174 3.2524123 22.09476757 3.25571156 C17.67381762 3.25868399 13.25289438 3.25706582 8.83194686 3.251734 C7.2300291 3.25061397 5.6281091 3.2511919 4.02619277 3.25360979 C1.85375576 3.25663819 -0.31858901 3.2535439 -2.49102116 3.24888897 C-3.69913428 3.24872662 -4.90724741 3.24856426 -6.15197003 3.24839699 C-9.0024847 3.13585697 -11.55761274 2.78056658 -14.32692623 2.12304783 C-14.32692623 1.79304783 -14.32692623 1.46304783 -14.32692623 1.12304783 C-9.50245823 0.34228547 -4.88510753 -0.0014781 0 0 Z M-21.32692623 2.12304783 C-19.01692623 2.12304783 -16.70692623 2.12304783 -14.32692623 2.12304783 C-14.98692623 2.78304783 -15.64692623 3.44304783 -16.32692623 4.12304783 C-18.95192623 3.74804783 -18.95192623 3.74804783 -21.32692623 3.12304783 C-21.32692623 2.79304783 -21.32692623 2.46304783 -21.32692623 2.12304783 Z " fill="#02D5ED" transform="translate(431.3269262313843,163.87695217132568)"/>
<path d="M0 0 C0.33 0 0.66 0 1 0 C1.75446082 4.69374539 2.1224879 9.18370442 2.11352539 13.9356842 C2.11374868 14.92826733 2.11374868 14.92826733 2.11397648 15.94090265 C2.11328683 18.13910197 2.10546653 20.33721575 2.09765625 22.53540039 C2.09573524 24.11960808 2.0942723 25.70381639 2.0932312 27.2880249 C2.09007735 30.69173885 2.08381912 34.0954278 2.07516479 37.49913216 C2.06159454 42.89292841 2.05573752 48.28671647 2.05102539 53.68052673 C2.03899755 66.11255071 2.01699491 78.54455325 1.99479675 90.9765625 C1.97456573 102.35606665 1.95649904 113.73556331 1.94658184 125.11508173 C1.94163129 130.46429629 1.93181865 135.81347214 1.91815186 141.16267121 C1.91062816 144.50881701 1.9073638 147.8549577 1.9051857 151.20111084 C1.90333262 152.73845675 1.89977048 154.27580184 1.89425278 155.81313896 C1.88688878 157.93392613 1.88600527 160.05463223 1.88647461 162.1754303 C1.884254 163.35545152 1.88203339 164.53547274 1.87974548 165.75125217 C2.05216847 171.84317944 2.56579434 177.92112075 3 184 C16.53 184 30.06 184 44 184 C44 184.33 44 184.66 44 185 C29.48 185 14.96 185 0 185 C0 123.95 0 62.9 0 0 Z " fill="#028FF8" transform="translate(265,652)"/>
<path d="M0 0 C0.33 0 0.66 0 1 0 C1.11747667 20.29919068 1.2053 40.59831114 1.25906086 60.89777279 C1.28470086 70.32592661 1.31957489 79.75386766 1.37719727 89.18188477 C1.42747235 97.41177408 1.4593938 105.64150911 1.47044247 113.87154776 C1.47688771 118.21809215 1.49172777 122.56419566 1.52865028 126.91059685 C1.90708534 173.26331419 1.90708534 173.26331419 -6 188 C-6.05482724 186.45874525 -6.09316134 184.91690094 -6.125 183.375 C-6.14820313 182.51648438 -6.17140625 181.65796875 -6.1953125 180.7734375 C-6 178 -6 178 -5.05574131 175.23511982 C-1.86273958 165.45076916 -1.65896944 154.77846766 -1.39477539 144.56567383 C-1.33881116 142.69894248 -1.33881116 142.69894248 -1.28171635 140.7944994 C-0.90123553 127.20223007 -0.77959584 113.60751204 -0.69667697 100.01072288 C-0.67422355 96.47276973 -0.64713625 92.93485149 -0.62062073 89.39692688 C-0.57147006 82.75033504 -0.52625649 76.10372301 -0.48259836 69.45709306 C-0.43254522 61.86766633 -0.37788836 54.27827469 -0.32291877 46.68888223 C-0.21029658 31.12595421 -0.10321532 15.56299344 0 0 Z " fill="#048BDC" transform="translate(424,562)"/>
<path d="M0 0 C0.33 0 0.66 0 1 0 C1.52736943 6.21484593 -0.01644226 9.7793006 -3.0625 15.125 C-3.9759854 16.78925356 -4.88729371 18.45470323 -5.796875 20.12109375 C-6.30283203 21.04132324 -6.80878906 21.96155273 -7.33007812 22.90966797 C-9.20913502 26.38702209 -11.02548602 29.8927658 -12.828125 33.41015625 C-13.15691147 34.05108215 -13.48569794 34.69200806 -13.82444763 35.35235596 C-15.14533715 37.9291643 -16.46499558 40.50659056 -17.78128052 43.08575439 C-21.26396273 49.90186899 -24.80738554 56.58729636 -29 63 C-29.33 62.34 -29.66 61.68 -30 61 C-29.109375 58.57421875 -29.109375 58.57421875 -27.75 55.6875 C-27.31171875 54.74261719 -26.8734375 53.79773438 -26.421875 52.82421875 C-24.60834983 49.22207947 -22.53317577 45.84077718 -20.375 42.4375 C-19.13024548 40.23088972 -18.45776922 38.47195376 -18 36 C-17.34 36 -16.68 36 -16 36 C-15.87625 35.01 -15.87625 35.01 -15.75 34 C-14.75240209 30.00960837 -12.92833317 26.61450357 -11 23 C-10.34 23 -9.68 23 -9 23 C-9 21.68 -9 20.36 -9 19 C-8.34 19 -7.68 19 -7 19 C-6.7525 18.195625 -6.505 17.39125 -6.25 16.5625 C-4.99193349 12.97701046 -3.50265616 9.59061892 -1.90234375 6.1484375 C-1.04585062 4.10916815 -0.47331239 2.15674307 0 0 Z " fill="#02CFEE" transform="translate(845,175)"/>
<path d="M0 0 C0.99 0.495 0.99 0.495 2 1 C1.99476318 1.68400879 1.98952637 2.36801758 1.98413086 3.07275391 C1.96298224 6.25682609 1.95022193 9.44088341 1.9375 12.625 C1.92912109 13.70007813 1.92074219 14.77515625 1.91210938 15.8828125 C1.88789054 24.02034245 2.41638646 31.82941041 3 40 C16.53 40 30.06 40 44 40 C44 40.33 44 40.66 44 41 C29.48 41 14.96 41 0 41 C0 27.47 0 13.94 0 0 Z " fill="#0371D0" transform="translate(265,796)"/>
<path d="M0 0 C0.66 0.33 1.32 0.66 2 1 C-6.83282901 21.31996774 -17.84697797 36.83999162 -34 52 C-34.495 50.515 -34.495 50.515 -35 49 C-33.33333333 47.33333333 -31.66666667 45.66666667 -30 44 C-29.278125 43.236875 -28.55625 42.47375 -27.8125 41.6875 C-26 40 -26 40 -24 40 C-24 39.34 -24 38.68 -24 38 C-23.34 38 -22.68 38 -22 38 C-22 37.34 -22 36.68 -22 36 C-21.34 36 -20.68 36 -20 36 C-19.34 34.35 -18.68 32.7 -18 31 C-17.34 31 -16.68 31 -16 31 C-16 30.01 -16 29.02 -16 28 C-15.34 28 -14.68 28 -14 28 C-14 27.01 -14 26.02 -14 25 C-13.34 25 -12.68 25 -12 25 C-12 24.01 -12 23.02 -12 22 C-11.34 22 -10.68 22 -10 22 C-9.731875 21.154375 -9.46375 20.30875 -9.1875 19.4375 C-7.9521405 15.86145933 -6.523012 12.46139092 -5 9 C-4.34 9 -3.68 9 -3 9 C-2.01 6.03 -1.02 3.06 0 0 Z " fill="#0484ED" transform="translate(414,756)"/>
<path d="M0 0 C0.33 0 0.66 0 1 0 C1.98630938 46.66381407 1.98630938 46.66381407 -5 59 C-5.05482724 57.45874525 -5.09316134 55.91690094 -5.125 54.375 C-5.15980469 53.08722656 -5.15980469 53.08722656 -5.1953125 51.7734375 C-5 49 -5 49 -4.05566406 46.22753906 C-0.65161442 35.82015324 -0.64015402 24.47421879 -0.375 13.625 C-0.33666281 12.29164561 -0.29760312 10.9583118 -0.2578125 9.625 C-0.16482103 6.41679423 -0.07897836 3.20857599 0 0 Z " fill="#0294F8" transform="translate(423,691)"/>
<path d="M0 0 C0.99 0.33 1.98 0.66 3 1 C-4.26 8.26 -11.52 15.52 -19 23 C-19.66 22.67 -20.32 22.34 -21 22 C-14.29634939 14.34835839 -7.24500623 7.13467619 0 0 Z " fill="#04D4F1" transform="translate(324,205)"/>
<path d="M0 0 C0.99 0.33 1.98 0.66 3 1 C-17.09677419 14.20967742 -17.09677419 14.20967742 -25 15 C-25 14.34 -25 13.68 -25 13 C-23.94941406 12.56429687 -22.89882813 12.12859375 -21.81640625 11.6796875 C-14.64440783 8.65270615 -7.91443596 5.75532199 -1.69921875 0.96875 C-1.13847656 0.6490625 -0.57773437 0.329375 0 0 Z " fill="#047EE2" transform="translate(368,814)"/>
<path d="M0 0 C0.66 0 1.32 0 2 0 C1.52013969 5.56890517 0.70084819 10.67067568 -1 16 C-1.33 16 -1.66 16 -2 16 C-2.20413361 10.26157749 -2.27141454 5.39460953 0 0 Z " fill="#0280E5" transform="translate(420,734)"/>
<path d="M0 0 C0.66 0.33 1.32 0.66 2 1 C-1.3621637 4.65882521 -4.36050852 7.14420341 -9 9 C-9.66 8.67 -10.32 8.34 -11 8 C-7.37 5.36 -3.74 2.72 0 0 Z " fill="#06C5DF" transform="translate(345,189)"/>
<path d="M0 0 C0 0.66 0 1.32 0 2 C-2.31 2.66 -4.62 3.32 -7 4 C-7 4.66 -7 5.32 -7 6 C-7.99 6.33 -8.98 6.66 -10 7 C-10.66 6.34 -11.32 5.68 -12 5 C-10.75747321 4.15556432 -9.5056114 3.3248542 -8.25 2.5 C-7.55390625 2.0359375 -6.8578125 1.571875 -6.140625 1.09375 C-4 0 -4 0 0 0 Z " fill="#05C5DF" transform="translate(359,183)"/>
<path d="M0 0 C0 3.96130371 -1.34877125 4.82914401 -4 7.6875 C-4.7425 8.49574219 -5.485 9.30398438 -6.25 10.13671875 C-6.8275 10.75160156 -7.405 11.36648438 -8 12 C-8.33 11.01 -8.66 10.02 -9 9 C-6.03 6.03 -3.06 3.06 0 0 Z " fill="#062046" transform="translate(388,799)"/>
<path d="M0 0 C0.33 0.99 0.66 1.98 1 3 C-1.31 5.31 -3.62 7.62 -6 10 C-6.66 9.67 -7.32 9.34 -8 9 C-5.36 6.03 -2.72 3.06 0 0 Z " fill="#06C1DE" transform="translate(311,218)"/>
<path d="M0 0 C0.33 1.32 0.66 2.64 1 4 C-0.9375 6.75 -0.9375 6.75 -3 9 C-4.32 8.67 -5.64 8.34 -7 8 C-4.69 5.36 -2.38 2.72 0 0 Z " fill="#092544" transform="translate(673,534)"/>
<path d="M0 0 C0.66 0.33 1.32 0.66 2 1 C1.67 4.3 1.34 7.6 1 11 C0.34 11 -0.32 11 -1 11 C-0.67 7.37 -0.34 3.74 0 0 Z " fill="#0B2C43" transform="translate(265,305)"/>
<path d="M0 0 C0.99 0.33 1.98 0.66 3 1 C1.35 4.3 -0.3 7.6 -2 11 C-2.33 11 -2.66 11 -3 11 C-3.39253254 6.55129785 -2.15305957 3.85756507 0 0 Z " fill="#04C7E2" transform="translate(834,198)"/>
<path d="M0 0 C0.99 0.33 1.98 0.66 3 1 C-0.465 3.97 -0.465 3.97 -4 7 C-4 4 -4 4 -2 1.8125 C-1.34 1.214375 -0.68 0.61625 0 0 Z " fill="#04CCE7" transform="translate(324,205)"/>
<path d="M0 0 C-1.125 1.5 -1.125 1.5 -3 3 C-6.1875 3.1875 -6.1875 3.1875 -9 3 C-6.27596221 -1.08605669 -4.4643819 -1.38549783 0 0 Z " fill="#06BAD6" transform="translate(390,171)"/>
<path d="M0 0 C0.66 0 1.32 0 2 0 C1.1875 2.9375 1.1875 2.9375 0 6 C-0.99 6.33 -1.98 6.66 -3 7 C-1.125 1.125 -1.125 1.125 0 0 Z " fill="#063149" transform="translate(845,182)"/>
<path d="M0 0 C0.66 0.33 1.32 0.66 2 1 C2 1.66 2 2.32 2 3 C0.02 3.66 -1.96 4.32 -4 5 C-4.66 4.34 -5.32 3.68 -6 3 C-4.03533587 1.93224776 -2.03144641 0.93446535 0 0 Z " fill="#08B1CA" transform="translate(363,179)"/>
</svg>
